<svg width="150" height="150" viewBox="0 0 150 150" xmlns="http://www.w3.org/2000/svg">
  <!-- Background Circle -->
  <circle cx="75" cy="75" r="70" fill="#0F172A" stroke="#10B981" stroke-width="3"/>
  
  <!-- SS Logo in Center -->
  <g transform="translate(45, 45)">
    <!-- S1 -->
    <rect x="0" y="0" width="15" height="15" fill="#10B981" rx="2"/>
    <rect x="3" y="3" width="9" height="9" fill="#0F172A" rx="1"/>
    <path d="M3 3 L12 3 L12 6 L6 6 L6 9 L12 9 L12 12 L3 12 L3 9 L9 9 L9 6 L3 6 Z" fill="#10B981"/>
    
    <!-- S2 -->
    <rect x="20" y="0" width="15" height="15" fill="#8B5CF6" rx="2"/>
    <rect x="23" y="3" width="9" height="9" fill="#0F172A" rx="1"/>
    <path d="M23 3 L32 3 L32 6 L26 6 L26 9 L32 9 L32 12 L23 12 L23 9 L29 9 L29 6 L23 6 Z" fill="#8B5CF6"/>
  </g>
  
  <!-- Company Name -->
  <text x="75" y="100" font-family="Arial, sans-serif" font-size="14" font-weight="bold" fill="#FFFFFF" text-anchor="middle">SwiftScale</text>
  <text x="75" y="115" font-family="Arial, sans-serif" font-size="10" fill="#10B981" text-anchor="middle">Software</text>
</svg>
