<svg width="200" height="60" viewBox="0 0 200 60" xmlns="http://www.w3.org/2000/svg">
  <!-- Background -->
  <rect width="200" height="60" rx="8" fill="#0F172A"/>
  
  <!-- SS Logo -->
  <g transform="translate(15, 15)">
    <!-- S1 -->
    <path d="M0 0 L0 15 L15 15 L15 0 L0 0 Z" fill="#10B981"/>
    <path d="M3 3 L3 12 L12 12 L12 3 L3 3 Z" fill="#0F172A"/>
    <path d="M3 3 L12 3 L12 6 L6 6 L6 9 L12 9 L12 12 L3 12 L3 9 L9 9 L9 6 L3 6 L3 3 Z" fill="#10B981"/>
    
    <!-- S2 -->
    <path d="M20 0 L20 15 L35 15 L35 0 L20 0 Z" fill="#8B5CF6"/>
    <path d="M23 3 L23 12 L32 12 L32 3 L23 3 Z" fill="#0F172A"/>
    <path d="M23 3 L32 3 L32 6 L26 6 L26 9 L32 9 L32 12 L23 12 L23 9 L29 9 L29 6 L23 6 L23 3 Z" fill="#8B5CF6"/>
  </g>
  
  <!-- Company Name -->
  <text x="70" y="25" font-family="Arial, sans-serif" font-size="18" font-weight="bold" fill="#FFFFFF">SwiftScale</text>
  <text x="70" y="42" font-family="Arial, sans-serif" font-size="12" font-weight="normal" fill="#10B981">Software</text>
  
  <!-- Tagline -->
  <text x="70" y="55" font-family="Arial, sans-serif" font-size="8" fill="#94A3B8">AI • QraftAI • Automation</text>
</svg>
